<?xml version="1.0" standalone="no"?>
<!DOCTYPE svg PUBLIC "-//W3C//DTD SVG 20010904//EN"
 "http://www.w3.org/TR/2001/REC-SVG-20010904/DTD/svg10.dtd">
<svg version="1.0" xmlns="http://www.w3.org/2000/svg"
 width="4000.000000pt" height="4000.000000pt" viewBox="0 0 4000.000000 4000.000000"
 preserveAspectRatio="xMidYMid meet">

<g transform="translate(0.000000,4000.000000) scale(0.100000,-0.100000)"
fill="#000000" stroke="none">
<path d="M19825 34523 c-2129 -72 -4088 -1189 -5288 -3013 -352 -536 -594
-1037 -802 -1665 l-93 -280 -93 -12 c-756 -101 -1331 -741 -1366 -1518 -5
-129 59 -1470 78 -1630 74 -609 495 -1128 1067 -1314 134 -44 240 -62 401 -70
l144 -6 64 -150 c308 -724 722 -1362 1282 -1979 l26 -28 -25 -17 c-55 -36
-199 -162 -272 -237 -325 -334 -520 -766 -558 -1238 -5 -71 -10 -315 -10 -543
l0 -413 -141 -282 c-666 -1332 -1022 -2371 -1151 -3363 -30 -235 -33 -742 -4
-940 69 -486 238 -847 545 -1168 230 -240 440 -389 696 -493 l80 -32 36 -144
c45 -176 76 -261 145 -403 87 -180 214 -363 349 -505 l53 -55 6 -100 c44 -669
164 -1580 326 -2475 136 -743 369 -1832 536 -2495 26 -104 32 -141 23 -144 -7
-2 -92 -43 -189 -92 -490 -245 -834 -570 -975 -923 -63 -157 -79 -243 -80
-426 0 -146 3 -174 23 -240 50 -157 123 -270 260 -402 275 -265 724 -446 1332
-537 700 -105 1756 -83 2382 49 303 64 575 165 752 278 255 164 450 400 552
670 l31 83 23 -63 c105 -292 326 -537 640 -711 274 -151 701 -268 1175 -321
572 -65 1281 -69 1800 -10 773 87 1313 324 1554 683 114 172 146 299 138 550
-4 137 -10 182 -31 261 -34 121 -116 290 -198 404 -186 262 -540 532 -925 707
-51 23 -93 48 -93 55 0 8 30 137 66 286 431 1791 700 3325 805 4583 l22 260
101 105 c163 169 281 338 376 535 77 161 119 292 176 560 3 14 31 32 90 60
185 85 374 226 559 416 326 336 490 671 567 1164 20 123 22 179 22 465 1 253
-3 357 -17 470 -118 946 -454 1964 -1058 3199 l-139 284 0 512 c0 282 -5 570
-10 641 -47 584 -333 1103 -801 1453 l-76 57 99 109 c487 539 910 1198 1208
1885 110 253 258 664 301 836 12 47 12 47 122 59 152 17 367 86 517 167 167
90 348 242 480 403 211 257 343 607 357 945 5 134 -58 1467 -78 1620 -51 407
-241 769 -537 1023 -272 234 -589 360 -942 374 l-135 6 -24 61 c-46 121 -164
374 -257 554 -574 1113 -1464 2064 -2529 2702 -202 121 -626 333 -850 426
-214 88 -619 222 -840 278 -455 115 -864 175 -1336 196 -212 9 -275 10 -464 3z
m450 -353 c611 -29 1116 -122 1690 -315 1161 -388 2193 -1137 2971 -2155 44
-58 91 -121 104 -140 l25 -35 -55 44 c-1070 857 -2489 1371 -4160 1506 -631
51 -1381 39 -2000 -31 -1485 -167 -2786 -664 -3762 -1435 -56 -45 -110 -87
-117 -93 -22 -16 85 128 215 290 418 523 924 986 1474 1349 955 631 2044 980
3175 1018 189 7 231 6 440 -3z m390 -1430 c1181 -85 2151 -326 3030 -754 809
-394 1438 -902 1943 -1571 151 -200 163 -223 273 -545 58 -169 173 -560 166
-566 -2 -2 -14 22 -27 54 -70 171 -218 444 -343 632 -256 383 -610 754 -984
1032 -830 616 -1920 1013 -3233 1177 -498 63 -872 85 -1450 85 -578 0 -952
-22 -1450 -85 -1467 -184 -2665 -658 -3515 -1391 -155 -134 -401 -389 -528
-548 -242 -302 -453 -663 -598 -1022 -23 -59 -44 -106 -46 -104 -5 5 32 160
73 306 83 298 221 684 264 740 15 19 57 79 95 133 347 506 874 998 1469 1371
1000 628 2258 988 3716 1066 207 11 945 5 1145 -10z m-831 -1430 c178 -15 292
-57 204 -75 -67 -14 -448 -145 -613 -210 -1033 -410 -1940 -1019 -2561 -1720
-452 -511 -685 -918 -1133 -1976 -270 -638 -558 -1482 -662 -1937 -12 -56 -26
-99 -30 -95 -10 11 -93 362 -128 543 -266 1358 -194 2545 204 3355 222 452
499 750 1000 1078 707 461 1615 799 2574 957 444 73 867 102 1145 80z m6608
-1386 c441 -90 805 -449 921 -909 28 -110 37 -207 62 -720 13 -280 30 -611 36
-734 12 -240 8 -311 -22 -463 -82 -414 -373 -765 -759 -916 -75 -29 -218 -68
-225 -61 -2 2 8 58 21 124 54 267 104 616 119 825 28 416 32 680 15 990 -34
609 -128 1147 -299 1712 -28 92 -51 170 -51 173 0 8 94 -3 182 -21z m-12892
-741 c0 -10 -4 -34 -10 -53 -32 -119 -93 -507 -121 -770 -98 -943 5 -1993 281
-2853 23 -71 39 -131 36 -135 -3 -3 -44 0 -91 7 -506 71 -922 472 -1020 983
-28 147 -101 1489 -91 1673 18 323 154 617 392 845 158 152 322 244 530 300
88 23 94 24 94 3z m11034 -218 c190 -50 354 -196 459 -408 74 -151 127 -352
127 -482 0 -95 -119 -629 -196 -882 -63 -206 -303 -444 -530 -524 -84 -30
-256 -37 -344 -14 -561 145 -776 1045 -420 1754 143 286 369 491 610 555 73
19 221 20 294 1z m-1133 -2979 c76 -17 136 -54 195 -119 90 -98 127 -201 127
-357 0 -161 -56 -309 -161 -422 -200 -216 -502 -209 -652 15 -62 93 -82 156
-88 282 -7 165 33 295 127 416 121 155 289 224 452 185z m-7676 -3038 c799
-497 1821 -890 2790 -1072 864 -162 1752 -164 2700 -5 1032 173 2069 548 2920
1057 61 36 144 88 185 116 l75 50 -54 -60 c-156 -172 -501 -475 -765 -672
-1756 -1311 -4048 -1584 -6056 -722 -744 320 -1429 800 -2025 1419 l-100 104
105 -70 c58 -38 159 -104 225 -145z m8807 -398 c350 -247 604 -664 668 -1100
15 -105 25 -568 12 -555 -6 6 -38 60 -73 120 -246 436 -535 881 -806 1243
l-123 164 58 51 c31 29 80 73 107 99 28 26 53 47 57 45 4 -1 49 -31 100 -67z
m-8998 -25 l79 -73 -130 -174 c-231 -306 -456 -645 -669 -1003 -63 -104 -118
-197 -124 -205 -13 -19 -6 258 10 375 47 344 214 679 465 931 86 86 259 224
280 223 6 0 46 -33 89 -74z m447 -380 c826 -649 1851 -1098 2899 -1270 1742
-286 3508 153 4935 1226 81 61 148 109 150 107 5 -6 255 -403 397 -632 743
-1192 1171 -2008 1517 -2891 l47 -121 -125 54 c-204 88 -436 147 -679 173
l-113 12 -83 112 c-208 280 -409 489 -627 653 l-87 65 -6 66 c-19 194 -99 564
-172 801 -85 271 -251 642 -307 684 -26 19 -30 19 -55 5 l-27 -15 2 -135 c1
-162 26 -366 98 -812 30 -185 55 -342 55 -347 0 -5 -24 0 -52 12 -229 92 -566
184 -801 218 -400 59 -990 41 -1491 -46 -625 -108 -1184 -310 -1481 -534 -36
-28 -70 -50 -76 -50 -5 0 -37 22 -72 48 -111 86 -222 149 -402 227 -761 332
-1901 476 -2675 339 -186 -33 -518 -130 -697 -202 -29 -12 -53 -17 -53 -12 0
5 25 162 55 347 68 423 94 630 102 804 l6 137 -28 18 c-24 16 -30 16 -53 3
-53 -29 -198 -337 -292 -619 -83 -248 -174 -653 -195 -865 l-7 -71 -114 -88
c-200 -155 -392 -356 -585 -612 l-99 -131 -80 -7 c-251 -21 -552 -97 -757
-191 -40 -19 -73 -31 -73 -29 0 3 42 110 94 238 295 731 631 1387 1153 2253
194 323 723 1173 730 1173 1 0 57 -43 124 -95z m1699 -2355 c645 -39 1286
-192 1723 -411 158 -80 282 -170 312 -228 16 -32 4 -123 -25 -188 -73 -166
-350 -283 -671 -283 -151 0 -210 -25 -249 -105 -30 -61 -25 -95 29 -218 93
-210 127 -369 119 -555 -17 -355 -235 -596 -632 -697 -293 -74 -668 -83 -1014
-24 -63 10 -130 19 -149 19 -73 0 -144 -56 -161 -128 -5 -20 -14 -91 -21 -158
-88 -966 -830 -2018 -1631 -2314 -522 -193 -1013 -71 -1436 358 -203 205 -315
381 -397 617 -76 219 -106 406 -114 706 -14 519 85 1092 314 1819 45 143 46
146 103 200 102 97 271 185 488 253 107 34 329 83 338 75 2 -3 -26 -56 -62
-119 -111 -190 -224 -419 -224 -454 0 -36 29 -72 67 -81 52 -14 72 5 162 151
356 576 752 1017 1131 1261 52 34 110 66 129 72 19 7 70 35 114 64 45 28 140
79 211 113 439 209 938 292 1546 255z m5150 -15 c382 -48 769 -179 1053 -357
44 -28 94 -55 111 -61 17 -5 74 -37 126 -71 381 -245 793 -705 1141 -1276 79
-131 100 -149 152 -136 36 9 67 44 67 77 0 15 -13 57 -30 94 -34 77 -165 320
-222 414 -22 35 -37 65 -35 67 8 8 251 -48 356 -82 194 -63 386 -170 499 -277
34 -33 68 -128 161 -452 113 -397 192 -813 222 -1170 14 -173 6 -540 -16 -685
-52 -351 -159 -612 -345 -843 -274 -341 -612 -552 -957 -598 -167 -22 -386 2
-573 62 -165 53 -412 194 -595 339 -111 88 -316 295 -412 417 -388 489 -618
1032 -678 1597 -16 151 -26 185 -67 223 -51 48 -93 52 -260 24 -475 -81 -965
-36 -1258 115 -108 56 -178 113 -245 202 -97 129 -133 233 -142 409 -9 181 25
341 119 552 57 131 60 172 15 240 -41 62 -79 74 -257 82 -243 11 -409 56 -530
144 -100 75 -150 166 -150 277 0 41 5 54 35 87 74 82 279 201 495 286 411 163
967 281 1490 315 176 12 581 3 730 -15z m-2889 -1166 c137 -128 330 -216 559
-255 58 -9 106 -18 108 -20 2 -1 -6 -32 -17 -68 -30 -99 -53 -228 -60 -346
l-6 -105 -625 0 -625 0 -7 112 c-6 112 -36 275 -63 354 -8 23 -15 45 -15 49 0
4 26 11 58 15 172 21 383 97 508 183 45 30 131 105 140 121 0 0 21 -17 45 -40z
m679 -1214 c125 -287 378 -500 715 -604 236 -73 416 -96 748 -96 l257 0 -2
-1100 -3 -1100 -27 -74 c-63 -172 -187 -296 -359 -359 l-74 -27 -1147 -3
-1147 -3 -4 578 c-3 557 -4 581 -25 662 -69 261 -196 455 -407 623 -195 155
-277 263 -336 443 -21 64 -23 93 -27 331 l-4 261 71 52 c136 101 264 262 331
416 l33 75 687 0 687 0 33 -75z m-2166 -1072 c24 -111 53 -189 108 -295 69
-132 160 -243 276 -336 220 -176 293 -268 355 -446 l32 -91 3 -563 3 -563
-773 3 -773 3 -75 27 c-145 53 -256 149 -325 279 -67 127 -65 96 -65 1109 l1
915 29 145 c16 80 30 160 30 179 l0 34 47 -7 c311 -42 710 -28 998 37 l100 22
6 -190 c4 -115 13 -219 23 -262z m4403 -688 c102 -203 236 -413 360 -568 30
-38 53 -70 51 -71 -12 -11 -467 39 -555 61 l-23 5 0 472 0 471 54 -125 c29
-69 80 -179 113 -245z m-5997 -394 c0 -183 -2 -220 -15 -224 -17 -7 -306 -29
-311 -24 -2 2 29 46 69 98 39 53 113 157 162 232 50 75 91 136 93 136 1 1 2
-98 2 -218z m6001 -565 c190 -26 344 -36 550 -36 l196 0 114 -92 c272 -218
514 -343 857 -444 15 -4 15 -35 2 -389 -33 -892 -119 -1763 -257 -2589 -6 -38
-8 -40 -107 -87 -314 -148 -704 -262 -1121 -328 -444 -70 -1009 -80 -1535 -25
-443 45 -1004 157 -1390 277 l-75 23 -3 467 -2 467 28 0 c15 0 89 5 163 10
600 46 1200 200 1641 421 133 67 158 91 136 136 -19 39 -52 37 -273 -15 -801
-190 -1668 -247 -2550 -166 -360 32 -796 99 -1122 170 -215 48 -236 50 -256
29 -26 -25 -21 -70 9 -94 43 -34 250 -136 384 -189 408 -162 835 -257 1323
-293 l167 -12 0 -467 0 -466 -92 -27 c-510 -146 -962 -233 -1478 -282 -232
-23 -713 -31 -940 -16 -587 38 -1118 160 -1565 359 l-149 67 -32 205 c-127
818 -208 1675 -229 2410 -3 113 -8 250 -11 306 l-5 101 128 42 c232 76 489
221 714 403 l105 85 299 6 c165 4 318 10 341 13 l41 6 6 -113 c20 -428 335
-779 764 -854 128 -22 4157 -23 4284 0 196 34 353 115 496 256 174 173 260
369 270 622 l6 129 27 -5 c15 -3 78 -13 141 -21z m2309 -611 c0 -2 -18 -59
-40 -125 -40 -122 -139 -329 -185 -385 l-24 -30 5 175 c3 96 7 216 10 267 l6
92 81 4 c45 1 97 4 115 5 17 1 32 0 32 -3z m-10269 -215 c3 -113 5 -207 3
-209 -1 -1 -23 37 -47 85 -44 89 -81 181 -110 282 l-16 53 82 -3 82 -3 6 -205z
m774 -3111 c921 -377 2090 -448 3325 -203 235 46 529 117 663 158 l79 24 -5
-1461 c-3 -889 -9 -1536 -16 -1652 -64 -1102 -129 -1374 -390 -1636 -259 -260
-668 -397 -1391 -465 -225 -21 -938 -30 -1180 -15 -575 36 -999 126 -1315 281
-165 81 -235 129 -341 234 -152 152 -191 260 -165 458 17 131 62 244 149 378
52 80 272 295 378 369 215 150 484 283 668 332 284 74 617 112 981 112 284 0
466 -18 695 -69 139 -31 350 -100 467 -154 47 -22 88 -38 90 -36 7 6 -186 121
-293 175 -263 131 -563 222 -907 275 -265 41 -397 50 -699 51 -159 0 -288 1
-288 1 0 1 -34 143 -76 315 -193 804 -353 1558 -489 2302 -44 243 -48 267 -42
267 2 0 48 -18 102 -41z m8553 -176 c-59 -330 -217 -1115 -303 -1503 -67 -303
-233 -1012 -264 -1126 l-11 -41 -177 5 c-719 19 -1429 -147 -1898 -443 -121
-76 -126 -83 -25 -37 356 164 723 236 1200 235 250 0 382 -9 619 -44 285 -41
397 -73 604 -172 404 -194 693 -436 832 -700 63 -120 86 -202 92 -339 10 -206
-26 -307 -157 -439 -236 -239 -654 -383 -1315 -454 -205 -22 -870 -31 -1160
-16 -658 35 -1114 124 -1442 280 -317 152 -505 363 -577 646 -64 254 -105 636
-137 1275 -6 121 -13 828 -16 1618 -5 1361 -5 1402 13 1402 11 0 48 -9 84 -21
170 -53 574 -145 834 -189 1171 -199 2260 -118 3121 234 61 24 113 45 116 45
3 1 -12 -97 -33 -216z"/>
<path d="M21157 16529 c-307 -35 -566 -269 -647 -583 -28 -109 -28 -283 0
-392 86 -339 365 -574 700 -591 233 -12 421 65 588 242 87 92 158 218 189 335
25 91 24 320 0 410 -37 137 -128 292 -221 378 -167 154 -388 227 -609 201z
m265 -288 c124 -48 246 -173 289 -295 24 -70 41 -189 33 -232 -12 -65 -168
-189 -294 -234 -78 -28 -253 -39 -328 -21 -138 34 -260 108 -344 210 -33 39
-36 83 -12 199 38 184 177 337 354 388 70 21 232 12 302 -15z"/>
</g>
</svg>
